<svg width="1099" height="35" viewBox="0 0 1099 35" fill="none" xmlns="http://www.w3.org/2000/svg">
<path d="M0.339844 1.40625H8.54883C10.2363 1.40625 11.7188 1.69336 12.9961 2.26758C14.2734 2.8418 15.2695 3.67969 15.9844 4.78125C16.7109 5.88281 17.0742 7.23633 17.0742 8.8418C17.0742 10.0723 16.8105 11.1855 16.2832 12.1816C15.7559 13.1777 15.041 14.0039 14.1387 14.6602C13.2363 15.3047 12.2168 15.7266 11.0801 15.9258L10.4648 16.1543H1.02539L0.990234 14.8535H9.26953C10.6875 14.8535 11.8652 14.5664 12.8027 13.9922C13.752 13.418 14.4609 12.6738 14.9297 11.7598C15.4102 10.834 15.6504 9.86133 15.6504 8.8418C15.6504 7.56445 15.3633 6.47461 14.7891 5.57227C14.2266 4.6582 13.4121 3.95508 12.3457 3.46289C11.291 2.95898 10.0254 2.70703 8.54883 2.70703H1.76367V27H0.339844V1.40625ZM16.6348 27L9.7793 15.6445L11.3613 15.627L18.1465 26.7539V27H16.6348ZM30.2754 27.3516C29.0801 27.3516 27.9727 27.123 26.9531 26.666C25.9336 26.1973 25.043 25.5469 24.2812 24.7148C23.5195 23.8711 22.9219 22.875 22.4883 21.7266C22.0664 20.5781 21.8555 19.3184 21.8555 17.9473V17.1738C21.8555 15.7559 22.0664 14.4668 22.4883 13.3066C22.9219 12.1348 23.5078 11.127 24.2461 10.2832C24.9844 9.42773 25.834 8.77148 26.7949 8.31445C27.7676 7.85742 28.8047 7.62891 29.9062 7.62891C31.0195 7.62891 32.0273 7.83398 32.9297 8.24414C33.832 8.6543 34.6055 9.22852 35.25 9.9668C35.8945 10.7051 36.3867 11.584 36.7266 12.6035C37.0664 13.623 37.2363 14.748 37.2363 15.9785V17.1562H22.7344V15.873H35.8477V15.6445C35.8359 14.4492 35.5898 13.3418 35.1094 12.3223C34.6406 11.3027 33.9668 10.4824 33.0879 9.86133C32.209 9.22852 31.1484 8.91211 29.9062 8.91211C28.9102 8.91211 28.002 9.12305 27.1816 9.54492C26.373 9.9668 25.6758 10.5527 25.0898 11.3027C24.5039 12.041 24.0527 12.9141 23.7363 13.9219C23.4199 14.918 23.2617 16.002 23.2617 17.1738V17.9473C23.2617 19.0723 23.4375 20.127 23.7891 21.1113C24.1406 22.0957 24.6328 22.9629 25.2656 23.7129C25.8984 24.4512 26.6426 25.0312 27.498 25.4531C28.3535 25.875 29.291 26.0859 30.3105 26.0859C31.4121 26.0859 32.4199 25.8926 33.334 25.5059C34.248 25.1191 35.0801 24.4395 35.8301 23.4668L36.7441 24.1523C36.3223 24.7617 35.8125 25.3066 35.2148 25.7871C34.6172 26.2676 33.9082 26.6484 33.0879 26.9297C32.2793 27.2109 31.3418 27.3516 30.2754 27.3516ZM53.373 23.502V13.6758C53.373 12.6797 53.1621 11.8242 52.7402 11.1094C52.3184 10.3945 51.7031 9.84961 50.8945 9.47461C50.0859 9.08789 49.0957 8.89453 47.9238 8.89453C46.834 8.89453 45.8555 9.08789 44.9883 9.47461C44.1328 9.84961 43.459 10.3652 42.9668 11.0215C42.4746 11.6777 42.2285 12.4102 42.2285 13.2188L40.8223 13.2012C40.8223 12.4746 40.9922 11.7773 41.332 11.1094C41.6836 10.4414 42.1758 9.84961 42.8086 9.33398C43.4531 8.80664 44.209 8.39062 45.0762 8.08594C45.9551 7.78125 46.916 7.62891 47.959 7.62891C49.2949 7.62891 50.4727 7.85742 51.4922 8.31445C52.5234 8.75977 53.3262 9.43359 53.9004 10.3359C54.4746 11.2383 54.7617 12.3633 54.7617 13.7109V23.0977C54.7617 23.7773 54.8086 24.4629 54.9023 25.1543C54.9961 25.8457 55.125 26.4023 55.2891 26.8242V27H53.7598C53.6309 26.5547 53.5312 26.0098 53.4609 25.3652C53.4023 24.7207 53.373 24.0996 53.373 23.502ZM53.8301 16.207L53.8652 17.4199H49.2246C48.0527 17.4199 47.0039 17.5312 46.0781 17.7539C45.1523 17.9766 44.3672 18.293 43.7227 18.7031C43.0781 19.1133 42.5859 19.5996 42.2461 20.1621C41.9062 20.7246 41.7363 21.3574 41.7363 22.0605C41.7363 22.7871 41.9297 23.4551 42.3164 24.0645C42.7031 24.6738 43.248 25.1602 43.9512 25.5234C44.6543 25.875 45.4688 26.0508 46.3945 26.0508C47.6602 26.0508 48.7793 25.834 49.752 25.4004C50.7363 24.9551 51.5625 24.3574 52.2305 23.6074C52.8984 22.8457 53.3848 21.9668 53.6895 20.9707L54.3047 21.9902C54.1055 22.6113 53.7949 23.2383 53.373 23.8711C52.9512 24.5039 52.4062 25.084 51.7383 25.6113C51.0703 26.127 50.2852 26.5488 49.3828 26.877C48.4805 27.1934 47.4551 27.3516 46.3066 27.3516C45.0996 27.3516 44.0449 27.1289 43.1426 26.6836C42.252 26.2266 41.5605 25.6055 41.0684 24.8203C40.5762 24.0234 40.3301 23.1152 40.3301 22.0957C40.3301 21.2168 40.5293 20.4141 40.9277 19.6875C41.3262 18.9609 41.9004 18.3398 42.6504 17.8242C43.4121 17.2969 44.332 16.8984 45.4102 16.6289C46.5 16.3477 47.7246 16.207 49.084 16.207H53.8301ZM67.3828 26.0684C68.332 26.0684 69.2285 25.8926 70.0723 25.541C70.9277 25.1895 71.6367 24.6562 72.1992 23.9414C72.7734 23.2148 73.0957 22.2949 73.166 21.1816H74.5371C74.4785 22.4473 74.1152 23.543 73.4473 24.4688C72.7793 25.3828 71.918 26.0918 70.8633 26.5957C69.8086 27.0996 68.6484 27.3516 67.3828 27.3516C66.1172 27.3516 64.9863 27.1172 63.9902 26.6484C63.0059 26.1797 62.1797 25.5176 61.5117 24.6621C60.8438 23.8066 60.334 22.8047 59.9824 21.6562C59.6426 20.4961 59.4727 19.2305 59.4727 17.8594V17.1211C59.4727 15.75 59.6426 14.4902 59.9824 13.3418C60.334 12.1816 60.8438 11.1738 61.5117 10.3184C62.1797 9.46289 63 8.80078 63.9727 8.33203C64.957 7.86328 66.082 7.62891 67.3477 7.62891C68.625 7.62891 69.7969 7.89258 70.8633 8.41992C71.9297 8.93555 72.791 9.69141 73.4473 10.6875C74.1152 11.6719 74.4785 12.8789 74.5371 14.3086H73.166C73.1074 13.1367 72.8086 12.1523 72.2695 11.3555C71.7305 10.5586 71.0273 9.95508 70.1602 9.54492C69.293 9.12305 68.3555 8.91211 67.3477 8.91211C66.2227 8.91211 65.25 9.12891 64.4297 9.5625C63.6094 9.99609 62.9355 10.5938 62.4082 11.3555C61.8809 12.1055 61.4941 12.9785 61.248 13.9746C61.002 14.959 60.8789 16.0078 60.8789 17.1211V17.8594C60.8789 18.9844 61.002 20.0449 61.248 21.041C61.4941 22.0254 61.8809 22.8926 62.4082 23.6426C62.9355 24.3926 63.6094 24.9844 64.4297 25.418C65.2617 25.8516 66.2461 26.0684 67.3828 26.0684ZM85.8398 7.98047V9.24609H76.7344V7.98047H85.8398ZM80.25 2.95312H81.6562V22.4121C81.6562 23.4316 81.7793 24.2051 82.0254 24.7324C82.2832 25.248 82.6172 25.5996 83.0273 25.7871C83.4492 25.9629 83.9004 26.0508 84.3809 26.0508C84.7207 26.0508 85.0312 26.0332 85.3125 25.998C85.6055 25.9629 85.8984 25.9219 86.1914 25.875L86.3145 27.1055C86.0566 27.1875 85.7227 27.2461 85.3125 27.2812C84.9023 27.3281 84.5391 27.3516 84.2227 27.3516C83.4258 27.3516 82.7285 27.2051 82.1309 26.9121C81.5332 26.6191 81.0703 26.1152 80.7422 25.4004C80.4141 24.6738 80.25 23.6777 80.25 22.4121V2.95312ZM144.463 1.40625V27H143.039L127.219 3.84961V27H125.777V1.40625H127.219L143.039 24.5215V1.40625H144.463ZM149.473 17.8242V17.1562C149.473 15.7617 149.672 14.4844 150.07 13.3242C150.48 12.1641 151.055 11.1621 151.793 10.3184C152.531 9.46289 153.41 8.80078 154.43 8.33203C155.461 7.86328 156.604 7.62891 157.857 7.62891C159.111 7.62891 160.254 7.86328 161.285 8.33203C162.316 8.80078 163.201 9.46289 163.939 10.3184C164.689 11.1621 165.264 12.1641 165.662 13.3242C166.061 14.4844 166.26 15.7617 166.26 17.1562V17.8242C166.26 19.2188 166.061 20.4961 165.662 21.6562C165.264 22.8164 164.695 23.8242 163.957 24.6797C163.219 25.5234 162.334 26.1797 161.303 26.6484C160.283 27.1172 159.146 27.3516 157.893 27.3516C156.627 27.3516 155.479 27.1172 154.447 26.6484C153.428 26.1797 152.543 25.5234 151.793 24.6797C151.055 23.8242 150.48 22.8164 150.07 21.6562C149.672 20.4961 149.473 19.2188 149.473 17.8242ZM150.879 17.1562V17.8242C150.879 18.9258 151.031 19.9746 151.336 20.9707C151.652 21.9551 152.109 22.834 152.707 23.6074C153.305 24.3691 154.037 24.9727 154.904 25.418C155.771 25.8516 156.768 26.0684 157.893 26.0684C158.994 26.0684 159.979 25.8516 160.846 25.418C161.713 24.9727 162.439 24.3691 163.025 23.6074C163.623 22.834 164.074 21.9551 164.379 20.9707C164.695 19.9746 164.854 18.9258 164.854 17.8242V17.1562C164.854 16.0781 164.695 15.0469 164.379 14.0625C164.074 13.0781 163.623 12.1992 163.025 11.4258C162.428 10.6523 161.695 10.043 160.828 9.59766C159.961 9.14062 158.971 8.91211 157.857 8.91211C156.744 8.91211 155.754 9.14062 154.887 9.59766C154.031 10.043 153.299 10.6523 152.689 11.4258C152.092 12.1992 151.641 13.0781 151.336 14.0625C151.031 15.0469 150.879 16.0781 150.879 17.1562ZM183.381 23.3086V0H184.77V27H183.434L183.381 23.3086ZM169.916 17.666V17.2969C169.916 15.8086 170.08 14.4727 170.408 13.2891C170.736 12.0938 171.211 11.0801 171.832 10.248C172.453 9.4043 173.209 8.75977 174.1 8.31445C175.002 7.85742 176.021 7.62891 177.158 7.62891C178.225 7.62891 179.174 7.79883 180.006 8.13867C180.838 8.4668 181.559 8.94141 182.168 9.5625C182.777 10.1719 183.275 10.8926 183.662 11.7246C184.061 12.5449 184.354 13.4531 184.541 14.4492V21.0059C184.4 21.8848 184.137 22.7109 183.75 23.4844C183.375 24.2461 182.877 24.9199 182.256 25.5059C181.646 26.0801 180.914 26.5312 180.059 26.8594C179.203 27.1875 178.225 27.3516 177.123 27.3516C175.998 27.3516 174.99 27.1172 174.1 26.6484C173.209 26.1797 172.453 25.5176 171.832 24.6621C171.211 23.8066 170.736 22.7871 170.408 21.6035C170.08 20.4199 169.916 19.1074 169.916 17.666ZM171.34 17.2969V17.666C171.34 18.873 171.457 19.9863 171.691 21.0059C171.938 22.0254 172.301 22.9102 172.781 23.6602C173.273 24.4102 173.889 24.9961 174.627 25.418C175.377 25.8398 176.256 26.0508 177.264 26.0508C178.553 26.0508 179.643 25.8164 180.533 25.3477C181.424 24.8789 182.133 24.2578 182.66 23.4844C183.199 22.7109 183.574 21.8555 183.785 20.918V14.7129C183.656 14.1152 183.451 13.4824 183.17 12.8145C182.9 12.1348 182.52 11.502 182.027 10.916C181.547 10.3301 180.92 9.85547 180.146 9.49219C179.373 9.11719 178.424 8.92969 177.299 8.92969C176.279 8.92969 175.395 9.14062 174.645 9.5625C173.906 9.98438 173.291 10.5703 172.799 11.3203C172.307 12.0703 171.938 12.9551 171.691 13.9746C171.457 14.9941 171.34 16.1016 171.34 17.2969ZM197.654 27.3516C196.459 27.3516 195.352 27.123 194.332 26.666C193.312 26.1973 192.422 25.5469 191.66 24.7148C190.898 23.8711 190.301 22.875 189.867 21.7266C189.445 20.5781 189.234 19.3184 189.234 17.9473V17.1738C189.234 15.7559 189.445 14.4668 189.867 13.3066C190.301 12.1348 190.887 11.127 191.625 10.2832C192.363 9.42773 193.213 8.77148 194.174 8.31445C195.146 7.85742 196.184 7.62891 197.285 7.62891C198.398 7.62891 199.406 7.83398 200.309 8.24414C201.211 8.6543 201.984 9.22852 202.629 9.9668C203.273 10.7051 203.766 11.584 204.105 12.6035C204.445 13.623 204.615 14.748 204.615 15.9785V17.1562H190.113V15.873H203.227V15.6445C203.215 14.4492 202.969 13.3418 202.488 12.3223C202.02 11.3027 201.346 10.4824 200.467 9.86133C199.588 9.22852 198.527 8.91211 197.285 8.91211C196.289 8.91211 195.381 9.12305 194.561 9.54492C193.752 9.9668 193.055 10.5527 192.469 11.3027C191.883 12.041 191.432 12.9141 191.115 13.9219C190.799 14.918 190.641 16.002 190.641 17.1738V17.9473C190.641 19.0723 190.816 20.127 191.168 21.1113C191.52 22.0957 192.012 22.9629 192.645 23.7129C193.277 24.4512 194.021 25.0312 194.877 25.4531C195.732 25.875 196.67 26.0859 197.689 26.0859C198.791 26.0859 199.799 25.8926 200.713 25.5059C201.627 25.1191 202.459 24.4395 203.209 23.4668L204.123 24.1523C203.701 24.7617 203.191 25.3066 202.594 25.7871C201.996 26.2676 201.287 26.6484 200.467 26.9297C199.658 27.2109 198.721 27.3516 197.654 27.3516ZM251.76 19.1074H253.184C253.008 20.9004 252.527 22.4121 251.742 23.6426C250.957 24.8613 249.902 25.7871 248.578 26.4199C247.266 27.041 245.719 27.3516 243.938 27.3516C242.52 27.3516 241.23 27.082 240.07 26.543C238.922 25.9922 237.932 25.2188 237.1 24.2227C236.279 23.2148 235.646 22.0137 235.201 20.6191C234.756 19.2246 234.533 17.6836 234.533 15.9961V12.4102C234.533 10.7109 234.756 9.16992 235.201 7.78711C235.646 6.39258 236.279 5.19727 237.1 4.20117C237.932 3.19336 238.928 2.41992 240.088 1.88086C241.26 1.33008 242.566 1.05469 244.008 1.05469C245.754 1.05469 247.283 1.36523 248.596 1.98633C249.908 2.60742 250.957 3.5332 251.742 4.76367C252.527 5.98242 253.008 7.48828 253.184 9.28125H251.76C251.584 7.79297 251.18 6.53906 250.547 5.51953C249.926 4.48828 249.07 3.70313 247.98 3.16406C246.891 2.625 245.566 2.35547 244.008 2.35547C242.777 2.35547 241.67 2.5957 240.686 3.07617C239.701 3.54492 238.857 4.22461 238.154 5.11523C237.451 5.99414 236.906 7.04883 236.52 8.2793C236.145 9.49805 235.957 10.8633 235.957 12.375V15.9961C235.957 17.4844 236.145 18.8496 236.52 20.0918C236.895 21.3223 237.428 22.3828 238.119 23.2734C238.811 24.1523 239.648 24.8379 240.633 25.3301C241.617 25.8105 242.719 26.0508 243.938 26.0508C245.496 26.0508 246.826 25.8047 247.928 25.3125C249.029 24.8086 249.896 24.041 250.529 23.0098C251.174 21.9785 251.584 20.6777 251.76 19.1074ZM273.838 20.7949C273.838 20.0332 273.709 19.3535 273.451 18.7559C273.193 18.1465 272.766 17.6074 272.168 17.1387C271.582 16.6582 270.809 16.2129 269.848 15.8027C268.887 15.3926 267.703 14.9941 266.297 14.6074C265.008 14.2559 263.842 13.875 262.799 13.4648C261.768 13.043 260.883 12.5625 260.145 12.0234C259.418 11.4844 258.861 10.8457 258.475 10.1074C258.088 9.35742 257.895 8.47266 257.895 7.45312C257.895 6.46875 258.105 5.58398 258.527 4.79883C258.949 4.01367 259.541 3.3457 260.303 2.79492C261.076 2.23242 261.979 1.80469 263.01 1.51172C264.053 1.20703 265.189 1.05469 266.42 1.05469C268.143 1.05469 269.648 1.38281 270.938 2.03906C272.227 2.68359 273.234 3.58008 273.961 4.72852C274.688 5.86523 275.051 7.17188 275.051 8.64844H273.627C273.627 7.44141 273.328 6.36328 272.73 5.41406C272.145 4.46484 271.312 3.7207 270.234 3.18164C269.168 2.63086 267.896 2.35547 266.42 2.35547C264.896 2.35547 263.602 2.58984 262.535 3.05859C261.48 3.52734 260.678 4.14844 260.127 4.92188C259.588 5.68359 259.318 6.51563 259.318 7.41797C259.318 8.0625 259.436 8.66602 259.67 9.22852C259.916 9.79102 260.314 10.3066 260.865 10.7754C261.428 11.2441 262.184 11.6895 263.133 12.1113C264.094 12.5215 265.289 12.9199 266.719 13.3066C268.031 13.6465 269.209 14.0332 270.252 14.4668C271.307 14.8887 272.209 15.3867 272.959 15.9609C273.709 16.5352 274.283 17.2148 274.682 18C275.08 18.7852 275.279 19.7051 275.279 20.7598C275.279 21.8027 275.057 22.7344 274.611 23.5547C274.166 24.3633 273.545 25.0547 272.748 25.6289C271.963 26.1914 271.037 26.6191 269.971 26.9121C268.916 27.2051 267.779 27.3516 266.561 27.3516C265.447 27.3516 264.328 27.2168 263.203 26.9473C262.09 26.6777 261.07 26.2441 260.145 25.6465C259.219 25.0488 258.475 24.2637 257.912 23.291C257.35 22.3184 257.068 21.1348 257.068 19.7402H258.492C258.492 20.9355 258.738 21.9434 259.23 22.7637C259.723 23.5723 260.367 24.2168 261.164 24.6973C261.961 25.1777 262.828 25.5234 263.766 25.7344C264.715 25.9453 265.646 26.0508 266.561 26.0508C267.99 26.0508 269.25 25.834 270.34 25.4004C271.441 24.9551 272.297 24.3398 272.906 23.5547C273.527 22.7578 273.838 21.8379 273.838 20.7949ZM295.143 20.7949C295.143 20.0332 295.014 19.3535 294.756 18.7559C294.498 18.1465 294.07 17.6074 293.473 17.1387C292.887 16.6582 292.113 16.2129 291.152 15.8027C290.191 15.3926 289.008 14.9941 287.602 14.6074C286.312 14.2559 285.146 13.875 284.104 13.4648C283.072 13.043 282.188 12.5625 281.449 12.0234C280.723 11.4844 280.166 10.8457 279.779 10.1074C279.393 9.35742 279.199 8.47266 279.199 7.45312C279.199 6.46875 279.41 5.58398 279.832 4.79883C280.254 4.01367 280.846 3.3457 281.607 2.79492C282.381 2.23242 283.283 1.80469 284.314 1.51172C285.357 1.20703 286.494 1.05469 287.725 1.05469C289.447 1.05469 290.953 1.38281 292.242 2.03906C293.531 2.68359 294.539 3.58008 295.266 4.72852C295.992 5.86523 296.355 7.17188 296.355 8.64844H294.932C294.932 7.44141 294.633 6.36328 294.035 5.41406C293.449 4.46484 292.617 3.7207 291.539 3.18164C290.473 2.63086 289.201 2.35547 287.725 2.35547C286.201 2.35547 284.906 2.58984 283.84 3.05859C282.785 3.52734 281.982 4.14844 281.432 4.92188C280.893 5.68359 280.623 6.51563 280.623 7.41797C280.623 8.0625 280.74 8.66602 280.975 9.22852C281.221 9.79102 281.619 10.3066 282.17 10.7754C282.732 11.2441 283.488 11.6895 284.438 12.1113C285.398 12.5215 286.594 12.9199 288.023 13.3066C289.336 13.6465 290.514 14.0332 291.557 14.4668C292.611 14.8887 293.514 15.3867 294.264 15.9609C295.014 16.5352 295.588 17.2148 295.986 18C296.385 18.7852 296.584 19.7051 296.584 20.7598C296.584 21.8027 296.361 22.7344 295.916 23.5547C295.471 24.3633 294.85 25.0547 294.053 25.6289C293.268 26.1914 292.342 26.6191 291.275 26.9121C290.221 27.2051 289.084 27.3516 287.865 27.3516C286.752 27.3516 285.633 27.2168 284.508 26.9473C283.395 26.6777 282.375 26.2441 281.449 25.6465C280.523 25.0488 279.779 24.2637 279.217 23.291C278.654 22.3184 278.373 21.1348 278.373 19.7402H279.797C279.797 20.9355 280.043 21.9434 280.535 22.7637C281.027 23.5723 281.672 24.2168 282.469 24.6973C283.266 25.1777 284.133 25.5234 285.07 25.7344C286.02 25.9453 286.951 26.0508 287.865 26.0508C289.295 26.0508 290.555 25.834 291.645 25.4004C292.746 24.9551 293.602 24.3398 294.211 23.5547C294.832 22.7578 295.143 21.8379 295.143 20.7949ZM354.873 1.40625V27H353.449L337.629 3.84961V27H336.188V1.40625H337.629L353.449 24.5215V1.40625H354.873ZM368.268 27.3516C367.072 27.3516 365.965 27.123 364.945 26.666C363.926 26.1973 363.035 25.5469 362.273 24.7148C361.512 23.8711 360.914 22.875 360.48 21.7266C360.059 20.5781 359.848 19.3184 359.848 17.9473V17.1738C359.848 15.7559 360.059 14.4668 360.48 13.3066C360.914 12.1348 361.5 11.127 362.238 10.2832C362.977 9.42773 363.826 8.77148 364.787 8.31445C365.76 7.85742 366.797 7.62891 367.898 7.62891C369.012 7.62891 370.02 7.83398 370.922 8.24414C371.824 8.6543 372.598 9.22852 373.242 9.9668C373.887 10.7051 374.379 11.584 374.719 12.6035C375.059 13.623 375.229 14.748 375.229 15.9785V17.1562H360.727V15.873H373.84V15.6445C373.828 14.4492 373.582 13.3418 373.102 12.3223C372.633 11.3027 371.959 10.4824 371.08 9.86133C370.201 9.22852 369.141 8.91211 367.898 8.91211C366.902 8.91211 365.994 9.12305 365.174 9.54492C364.365 9.9668 363.668 10.5527 363.082 11.3027C362.496 12.041 362.045 12.9141 361.729 13.9219C361.412 14.918 361.254 16.002 361.254 17.1738V17.9473C361.254 19.0723 361.43 20.127 361.781 21.1113C362.133 22.0957 362.625 22.9629 363.258 23.7129C363.891 24.4512 364.635 25.0312 365.49 25.4531C366.346 25.875 367.283 26.0859 368.303 26.0859C369.404 26.0859 370.412 25.8926 371.326 25.5059C372.24 25.1191 373.072 24.4395 373.822 23.4668L374.736 24.1523C374.314 24.7617 373.805 25.3066 373.207 25.7871C372.609 26.2676 371.9 26.6484 371.08 26.9297C370.271 27.2109 369.334 27.3516 368.268 27.3516ZM379.588 7.98047L385.301 16.1191L390.996 7.98047H392.701L386.109 17.2617L393.035 27H391.348L385.301 18.4219L379.254 27H377.566L384.475 17.2617L377.9 7.98047H379.588ZM403.652 7.98047V9.24609H394.547V7.98047H403.652ZM398.062 2.95312H399.469V22.4121C399.469 23.4316 399.592 24.2051 399.838 24.7324C400.096 25.248 400.43 25.5996 400.84 25.7871C401.262 25.9629 401.713 26.0508 402.193 26.0508C402.533 26.0508 402.844 26.0332 403.125 25.998C403.418 25.9629 403.711 25.9219 404.004 25.875L404.127 27.1055C403.869 27.1875 403.535 27.2461 403.125 27.2812C402.715 27.3281 402.352 27.3516 402.035 27.3516C401.238 27.3516 400.541 27.2051 399.943 26.9121C399.346 26.6191 398.883 26.1152 398.555 25.4004C398.227 24.6738 398.062 23.6777 398.062 22.4121V2.95312ZM459.305 25.6992V27H444.381V25.6992H459.305ZM445.014 1.40625V27H443.59V1.40625H445.014ZM457.512 13.166V14.4844H444.381V13.166H457.512ZM459.27 1.40625V2.70703H444.381V1.40625H459.27ZM463.611 7.98047L469.324 16.1191L475.02 7.98047H476.725L470.133 17.2617L477.059 27H475.371L469.324 18.4219L463.277 27H461.59L468.498 17.2617L461.924 7.98047H463.611ZM482.297 11.6367V34.3125H480.891V7.98047H482.244L482.297 11.6367ZM495.762 17.2969V17.666C495.762 19.1074 495.598 20.4199 495.27 21.6035C494.953 22.7871 494.484 23.8066 493.863 24.6621C493.254 25.5176 492.504 26.1797 491.613 26.6484C490.723 27.1172 489.709 27.3516 488.572 27.3516C487.482 27.3516 486.504 27.1934 485.637 26.877C484.77 26.5488 484.02 26.0918 483.387 25.5059C482.754 24.9199 482.244 24.252 481.857 23.502C481.471 22.7402 481.201 21.9258 481.049 21.0586V14.4492C481.248 13.4531 481.547 12.5449 481.945 11.7246C482.355 10.8926 482.865 10.1719 483.475 9.5625C484.096 8.94141 484.828 8.4668 485.672 8.13867C486.516 7.79883 487.471 7.62891 488.537 7.62891C489.674 7.62891 490.688 7.85742 491.578 8.31445C492.48 8.75977 493.242 9.4043 493.863 10.248C494.484 11.0801 494.953 12.0938 495.27 13.2891C495.598 14.4727 495.762 15.8086 495.762 17.2969ZM494.338 17.666V17.2969C494.338 16.1016 494.215 14.9941 493.969 13.9746C493.734 12.9551 493.371 12.0703 492.879 11.3203C492.387 10.5703 491.766 9.98438 491.016 9.5625C490.266 9.14062 489.381 8.92969 488.361 8.92969C487.248 8.92969 486.305 9.11719 485.531 9.49219C484.758 9.85547 484.119 10.3301 483.615 10.916C483.123 11.502 482.742 12.1348 482.473 12.8145C482.203 13.4824 482.004 14.1152 481.875 14.7129V20.9531C482.086 21.8906 482.461 22.7461 483 23.5195C483.539 24.293 484.254 24.9141 485.145 25.3828C486.047 25.8398 487.131 26.0684 488.396 26.0684C489.416 26.0684 490.295 25.8574 491.033 25.4355C491.771 25.0137 492.387 24.4277 492.879 23.6777C493.371 22.9277 493.734 22.043 493.969 21.0234C494.215 19.9922 494.338 18.873 494.338 17.666ZM502.143 11.2148V27H500.754V7.98047H502.125L502.143 11.2148ZM509.385 7.83984L509.297 9.10547C509.086 9.07031 508.875 9.04102 508.664 9.01758C508.453 8.99414 508.23 8.98242 507.996 8.98242C506.988 8.98242 506.104 9.18164 505.342 9.58008C504.592 9.97852 503.959 10.5234 503.443 11.2148C502.939 11.9062 502.559 12.709 502.301 13.623C502.043 14.5371 501.908 15.5156 501.896 16.5586L501.211 16.6992C501.211 15.3984 501.346 14.1973 501.615 13.0957C501.896 11.9941 502.318 11.0332 502.881 10.2129C503.443 9.39258 504.152 8.75977 505.008 8.31445C505.863 7.85742 506.871 7.62891 508.031 7.62891C508.312 7.62891 508.57 7.65234 508.805 7.69922C509.039 7.73438 509.232 7.78125 509.385 7.83984ZM519.545 27.3516C518.35 27.3516 517.242 27.123 516.223 26.666C515.203 26.1973 514.312 25.5469 513.551 24.7148C512.789 23.8711 512.191 22.875 511.758 21.7266C511.336 20.5781 511.125 19.3184 511.125 17.9473V17.1738C511.125 15.7559 511.336 14.4668 511.758 13.3066C512.191 12.1348 512.777 11.127 513.516 10.2832C514.254 9.42773 515.104 8.77148 516.064 8.31445C517.037 7.85742 518.074 7.62891 519.176 7.62891C520.289 7.62891 521.297 7.83398 522.199 8.24414C523.102 8.6543 523.875 9.22852 524.52 9.9668C525.164 10.7051 525.656 11.584 525.996 12.6035C526.336 13.623 526.506 14.748 526.506 15.9785V17.1562H512.004V15.873H525.117V15.6445C525.105 14.4492 524.859 13.3418 524.379 12.3223C523.91 11.3027 523.236 10.4824 522.357 9.86133C521.479 9.22852 520.418 8.91211 519.176 8.91211C518.18 8.91211 517.271 9.12305 516.451 9.54492C515.643 9.9668 514.945 10.5527 514.359 11.3027C513.773 12.041 513.322 12.9141 513.006 13.9219C512.689 14.918 512.531 16.002 512.531 17.1738V17.9473C512.531 19.0723 512.707 20.127 513.059 21.1113C513.41 22.0957 513.902 22.9629 514.535 23.7129C515.168 24.4512 515.912 25.0312 516.768 25.4531C517.623 25.875 518.561 26.0859 519.58 26.0859C520.682 26.0859 521.689 25.8926 522.604 25.5059C523.518 25.1191 524.35 24.4395 525.1 23.4668L526.014 24.1523C525.592 24.7617 525.082 25.3066 524.484 25.7871C523.887 26.2676 523.178 26.6484 522.357 26.9297C521.549 27.2109 520.611 27.3516 519.545 27.3516ZM542.449 22.2715C542.449 21.709 542.297 21.1523 541.992 20.6016C541.699 20.0508 541.154 19.5352 540.357 19.0547C539.572 18.5742 538.43 18.1699 536.93 17.8418C535.863 17.6074 534.92 17.3496 534.1 17.0684C533.291 16.7871 532.611 16.4473 532.061 16.0488C531.51 15.6387 531.094 15.1523 530.812 14.5898C530.543 14.0273 530.408 13.3535 530.408 12.5684C530.408 11.8887 530.555 11.25 530.848 10.6523C531.141 10.0547 531.568 9.5332 532.131 9.08789C532.705 8.63086 533.391 8.27344 534.188 8.01562C534.984 7.75781 535.887 7.62891 536.895 7.62891C538.336 7.62891 539.566 7.86914 540.586 8.34961C541.617 8.81836 542.408 9.46875 542.959 10.3008C543.51 11.1211 543.785 12.0762 543.785 13.166H542.379C542.379 12.4277 542.168 11.7363 541.746 11.0918C541.324 10.4473 540.703 9.92578 539.883 9.52734C539.074 9.11719 538.078 8.91211 536.895 8.91211C535.699 8.91211 534.727 9.09375 533.977 9.45703C533.227 9.82031 532.676 10.2832 532.324 10.8457C531.984 11.3965 531.814 11.959 531.814 12.5332C531.814 12.9902 531.879 13.418 532.008 13.8164C532.148 14.2031 532.412 14.5605 532.799 14.8887C533.186 15.2168 533.742 15.5332 534.469 15.8379C535.195 16.1309 536.139 16.4062 537.299 16.6641C538.822 17.0039 540.064 17.4199 541.025 17.9121C541.986 18.3926 542.695 18.9844 543.152 19.6875C543.609 20.3789 543.838 21.2285 543.838 22.2363C543.838 22.9863 543.68 23.6777 543.363 24.3105C543.047 24.9316 542.59 25.4707 541.992 25.9277C541.406 26.3848 540.691 26.7363 539.848 26.9824C539.004 27.2285 538.066 27.3516 537.035 27.3516C535.477 27.3516 534.152 27.1055 533.062 26.6133C531.984 26.1094 531.164 25.4473 530.602 24.627C530.051 23.8066 529.775 22.9219 529.775 21.9727H531.182C531.264 23.0156 531.604 23.8359 532.201 24.4336C532.811 25.0312 533.549 25.4531 534.416 25.6992C535.295 25.9453 536.168 26.0684 537.035 26.0684C538.219 26.0684 539.209 25.8867 540.006 25.5234C540.814 25.1484 541.424 24.6738 541.834 24.0996C542.244 23.5137 542.449 22.9043 542.449 22.2715ZM560.484 22.2715C560.484 21.709 560.332 21.1523 560.027 20.6016C559.734 20.0508 559.189 19.5352 558.393 19.0547C557.607 18.5742 556.465 18.1699 554.965 17.8418C553.898 17.6074 552.955 17.3496 552.135 17.0684C551.326 16.7871 550.646 16.4473 550.096 16.0488C549.545 15.6387 549.129 15.1523 548.848 14.5898C548.578 14.0273 548.443 13.3535 548.443 12.5684C548.443 11.8887 548.59 11.25 548.883 10.6523C549.176 10.0547 549.604 9.5332 550.166 9.08789C550.74 8.63086 551.426 8.27344 552.223 8.01562C553.02 7.75781 553.922 7.62891 554.93 7.62891C556.371 7.62891 557.602 7.86914 558.621 8.34961C559.652 8.81836 560.443 9.46875 560.994 10.3008C561.545 11.1211 561.82 12.0762 561.82 13.166H560.414C560.414 12.4277 560.203 11.7363 559.781 11.0918C559.359 10.4473 558.738 9.92578 557.918 9.52734C557.109 9.11719 556.113 8.91211 554.93 8.91211C553.734 8.91211 552.762 9.09375 552.012 9.45703C551.262 9.82031 550.711 10.2832 550.359 10.8457C550.02 11.3965 549.85 11.959 549.85 12.5332C549.85 12.9902 549.914 13.418 550.043 13.8164C550.184 14.2031 550.447 14.5605 550.834 14.8887C551.221 15.2168 551.777 15.5332 552.504 15.8379C553.23 16.1309 554.174 16.4062 555.334 16.6641C556.857 17.0039 558.1 17.4199 559.061 17.9121C560.021 18.3926 560.73 18.9844 561.188 19.6875C561.645 20.3789 561.873 21.2285 561.873 22.2363C561.873 22.9863 561.715 23.6777 561.398 24.3105C561.082 24.9316 560.625 25.4707 560.027 25.9277C559.441 26.3848 558.727 26.7363 557.883 26.9824C557.039 27.2285 556.102 27.3516 555.07 27.3516C553.512 27.3516 552.188 27.1055 551.098 26.6133C550.02 26.1094 549.199 25.4473 548.637 24.627C548.086 23.8066 547.811 22.9219 547.811 21.9727H549.217C549.299 23.0156 549.639 23.8359 550.236 24.4336C550.846 25.0312 551.584 25.4531 552.451 25.6992C553.33 25.9453 554.203 26.0684 555.07 26.0684C556.254 26.0684 557.244 25.8867 558.041 25.5234C558.85 25.1484 559.459 24.6738 559.869 24.0996C560.279 23.5137 560.484 22.9043 560.484 22.2715ZM612.146 1.40625V27H610.723L594.902 3.84961V27H593.461V1.40625H594.902L610.723 24.5215V1.40625H612.146ZM625.541 27.3516C624.346 27.3516 623.238 27.123 622.219 26.666C621.199 26.1973 620.309 25.5469 619.547 24.7148C618.785 23.8711 618.188 22.875 617.754 21.7266C617.332 20.5781 617.121 19.3184 617.121 17.9473V17.1738C617.121 15.7559 617.332 14.4668 617.754 13.3066C618.188 12.1348 618.773 11.127 619.512 10.2832C620.25 9.42773 621.1 8.77148 622.061 8.31445C623.033 7.85742 624.07 7.62891 625.172 7.62891C626.285 7.62891 627.293 7.83398 628.195 8.24414C629.098 8.6543 629.871 9.22852 630.516 9.9668C631.16 10.7051 631.652 11.584 631.992 12.6035C632.332 13.623 632.502 14.748 632.502 15.9785V17.1562H618V15.873H631.113V15.6445C631.102 14.4492 630.855 13.3418 630.375 12.3223C629.906 11.3027 629.232 10.4824 628.354 9.86133C627.475 9.22852 626.414 8.91211 625.172 8.91211C624.176 8.91211 623.268 9.12305 622.447 9.54492C621.639 9.9668 620.941 10.5527 620.355 11.3027C619.77 12.041 619.318 12.9141 619.002 13.9219C618.686 14.918 618.527 16.002 618.527 17.1738V17.9473C618.527 19.0723 618.703 20.127 619.055 21.1113C619.406 22.0957 619.898 22.9629 620.531 23.7129C621.164 24.4512 621.908 25.0312 622.764 25.4531C623.619 25.875 624.557 26.0859 625.576 26.0859C626.678 26.0859 627.686 25.8926 628.6 25.5059C629.514 25.1191 630.346 24.4395 631.096 23.4668L632.01 24.1523C631.588 24.7617 631.078 25.3066 630.48 25.7871C629.883 26.2676 629.174 26.6484 628.354 26.9297C627.545 27.2109 626.607 27.3516 625.541 27.3516ZM648.445 22.2715C648.445 21.709 648.293 21.1523 647.988 20.6016C647.695 20.0508 647.15 19.5352 646.354 19.0547C645.568 18.5742 644.426 18.1699 642.926 17.8418C641.859 17.6074 640.916 17.3496 640.096 17.0684C639.287 16.7871 638.607 16.4473 638.057 16.0488C637.506 15.6387 637.09 15.1523 636.809 14.5898C636.539 14.0273 636.404 13.3535 636.404 12.5684C636.404 11.8887 636.551 11.25 636.844 10.6523C637.137 10.0547 637.564 9.5332 638.127 9.08789C638.701 8.63086 639.387 8.27344 640.184 8.01562C640.98 7.75781 641.883 7.62891 642.891 7.62891C644.332 7.62891 645.562 7.86914 646.582 8.34961C647.613 8.81836 648.404 9.46875 648.955 10.3008C649.506 11.1211 649.781 12.0762 649.781 13.166H648.375C648.375 12.4277 648.164 11.7363 647.742 11.0918C647.32 10.4473 646.699 9.92578 645.879 9.52734C645.07 9.11719 644.074 8.91211 642.891 8.91211C641.695 8.91211 640.723 9.09375 639.973 9.45703C639.223 9.82031 638.672 10.2832 638.32 10.8457C637.98 11.3965 637.811 11.959 637.811 12.5332C637.811 12.9902 637.875 13.418 638.004 13.8164C638.145 14.2031 638.408 14.5605 638.795 14.8887C639.182 15.2168 639.738 15.5332 640.465 15.8379C641.191 16.1309 642.135 16.4062 643.295 16.6641C644.818 17.0039 646.061 17.4199 647.021 17.9121C647.982 18.3926 648.691 18.9844 649.148 19.6875C649.605 20.3789 649.834 21.2285 649.834 22.2363C649.834 22.9863 649.676 23.6777 649.359 24.3105C649.043 24.9316 648.586 25.4707 647.988 25.9277C647.402 26.3848 646.688 26.7363 645.844 26.9824C645 27.2285 644.062 27.3516 643.031 27.3516C641.473 27.3516 640.148 27.1055 639.059 26.6133C637.98 26.1094 637.16 25.4473 636.598 24.627C636.047 23.8066 635.771 22.9219 635.771 21.9727H637.178C637.26 23.0156 637.6 23.8359 638.197 24.4336C638.807 25.0312 639.545 25.4531 640.412 25.6992C641.291 25.9453 642.164 26.0684 643.031 26.0684C644.215 26.0684 645.205 25.8867 646.002 25.5234C646.811 25.1484 647.42 24.6738 647.83 24.0996C648.24 23.5137 648.445 22.9043 648.445 22.2715ZM661.629 7.98047V9.24609H652.523V7.98047H661.629ZM656.039 2.95312H657.445V22.4121C657.445 23.4316 657.568 24.2051 657.814 24.7324C658.072 25.248 658.406 25.5996 658.816 25.7871C659.238 25.9629 659.689 26.0508 660.17 26.0508C660.51 26.0508 660.82 26.0332 661.102 25.998C661.395 25.9629 661.688 25.9219 661.98 25.875L662.104 27.1055C661.846 27.1875 661.512 27.2461 661.102 27.2812C660.691 27.3281 660.328 27.3516 660.012 27.3516C659.215 27.3516 658.518 27.2051 657.92 26.9121C657.322 26.6191 656.859 26.1152 656.531 25.4004C656.203 24.6738 656.039 23.6777 656.039 22.4121V2.95312ZM710.391 13.166V14.4844H693.814V13.166H710.391ZM694.307 1.40625V27H692.883V1.40625H694.307ZM711.41 1.40625V27H709.986V1.40625H711.41ZM725.754 1.40625V27H724.348V1.40625H725.754ZM734.859 1.40625V2.70703H715.242V1.40625H734.859ZM739.658 1.40625H741.152L751.277 24.9609L761.402 1.40625H762.896L751.822 27H750.715L739.658 1.40625ZM739.219 1.40625H740.555L740.643 15.0996V27H739.219V1.40625ZM762.035 1.40625H763.371V27H761.947V15.0996L762.035 1.40625ZM784.57 25.6992V27H771V25.6992H784.57ZM771.633 1.40625V27H770.191V1.40625H771.633ZM833.191 15.1699V24.1348C832.91 24.5332 832.4 24.9844 831.662 25.4883C830.936 25.9922 829.969 26.4316 828.762 26.8066C827.555 27.1699 826.096 27.3516 824.385 27.3516C822.908 27.3516 821.555 27.082 820.324 26.543C819.105 26.0039 818.051 25.2305 817.16 24.2227C816.27 23.2031 815.578 21.9961 815.086 20.6016C814.605 19.1953 814.365 17.6367 814.365 15.9258V12.1641C814.365 10.4883 814.594 8.97656 815.051 7.62891C815.52 6.26953 816.182 5.09766 817.037 4.11328C817.893 3.12891 818.912 2.37305 820.096 1.8457C821.291 1.31836 822.615 1.05469 824.068 1.05469C825.943 1.05469 827.52 1.38281 828.797 2.03906C830.086 2.68359 831.094 3.5625 831.82 4.67578C832.547 5.78906 832.992 7.04297 833.156 8.4375H831.732C831.557 7.35938 831.188 6.36328 830.625 5.44922C830.074 4.52344 829.266 3.7793 828.199 3.2168C827.133 2.64258 825.756 2.35547 824.068 2.35547C822.791 2.35547 821.643 2.5957 820.623 3.07617C819.604 3.54492 818.73 4.21289 818.004 5.08008C817.289 5.94727 816.738 6.97852 816.352 8.17383C815.977 9.36914 815.789 10.6875 815.789 12.1289V15.9258C815.789 17.4258 815.988 18.7969 816.387 20.0391C816.797 21.2695 817.377 22.3359 818.127 23.2383C818.889 24.1406 819.797 24.8379 820.852 25.3301C821.918 25.8105 823.096 26.0508 824.385 26.0508C825.744 26.0508 826.928 25.916 827.936 25.6465C828.955 25.377 829.781 25.0547 830.414 24.6797C831.059 24.293 831.51 23.9355 831.768 23.6074V16.4883H824.314V15.1699H833.191ZM854.654 20.7949C854.654 20.0332 854.525 19.3535 854.268 18.7559C854.01 18.1465 853.582 17.6074 852.984 17.1387C852.398 16.6582 851.625 16.2129 850.664 15.8027C849.703 15.3926 848.52 14.9941 847.113 14.6074C845.824 14.2559 844.658 13.875 843.615 13.4648C842.584 13.043 841.699 12.5625 840.961 12.0234C840.234 11.4844 839.678 10.8457 839.291 10.1074C838.904 9.35742 838.711 8.47266 838.711 7.45312C838.711 6.46875 838.922 5.58398 839.344 4.79883C839.766 4.01367 840.357 3.3457 841.119 2.79492C841.893 2.23242 842.795 1.80469 843.826 1.51172C844.869 1.20703 846.006 1.05469 847.236 1.05469C848.959 1.05469 850.465 1.38281 851.754 2.03906C853.043 2.68359 854.051 3.58008 854.777 4.72852C855.504 5.86523 855.867 7.17188 855.867 8.64844H854.443C854.443 7.44141 854.145 6.36328 853.547 5.41406C852.961 4.46484 852.129 3.7207 851.051 3.18164C849.984 2.63086 848.713 2.35547 847.236 2.35547C845.713 2.35547 844.418 2.58984 843.352 3.05859C842.297 3.52734 841.494 4.14844 840.943 4.92188C840.404 5.68359 840.135 6.51563 840.135 7.41797C840.135 8.0625 840.252 8.66602 840.486 9.22852C840.732 9.79102 841.131 10.3066 841.682 10.7754C842.244 11.2441 843 11.6895 843.949 12.1113C844.91 12.5215 846.105 12.9199 847.535 13.3066C848.848 13.6465 850.025 14.0332 851.068 14.4668C852.123 14.8887 853.025 15.3867 853.775 15.9609C854.525 16.5352 855.1 17.2148 855.498 18C855.896 18.7852 856.096 19.7051 856.096 20.7598C856.096 21.8027 855.873 22.7344 855.428 23.5547C854.982 24.3633 854.361 25.0547 853.564 25.6289C852.779 26.1914 851.854 26.6191 850.787 26.9121C849.732 27.2051 848.596 27.3516 847.377 27.3516C846.264 27.3516 845.145 27.2168 844.02 26.9473C842.906 26.6777 841.887 26.2441 840.961 25.6465C840.035 25.0488 839.291 24.2637 838.729 23.291C838.166 22.3184 837.885 21.1348 837.885 19.7402H839.309C839.309 20.9355 839.555 21.9434 840.047 22.7637C840.539 23.5723 841.184 24.2168 841.98 24.6973C842.777 25.1777 843.645 25.5234 844.582 25.7344C845.531 25.9453 846.463 26.0508 847.377 26.0508C848.807 26.0508 850.066 25.834 851.156 25.4004C852.258 24.9551 853.113 24.3398 853.723 23.5547C854.344 22.7578 854.654 21.8379 854.654 20.7949ZM868.734 2.49609L859.629 27H858.117L867.732 1.40625H868.91L868.734 2.49609ZM877.348 27L868.26 2.49609L868.084 1.40625H869.244L878.877 27H877.348ZM875.098 18.2285V19.5469H861.967V18.2285H875.098ZM891.146 16.3477H883.553V15.0469H891.146C892.787 15.0469 894.123 14.7773 895.154 14.2383C896.186 13.6875 896.936 12.9551 897.404 12.041C897.885 11.1152 898.125 10.0957 898.125 8.98242C898.125 7.83398 897.885 6.78516 897.404 5.83594C896.936 4.88672 896.186 4.13086 895.154 3.56836C894.123 2.99414 892.787 2.70703 891.146 2.70703H884.291V27H882.867V1.40625H891.146C892.986 1.40625 894.527 1.72266 895.77 2.35547C897.023 2.98828 897.967 3.87305 898.6 5.00977C899.232 6.13477 899.549 7.44727 899.549 8.94727C899.549 10.4707 899.232 11.7891 898.6 12.9023C897.967 14.0039 897.029 14.8535 895.787 15.4512C894.545 16.0488 892.998 16.3477 891.146 16.3477ZM934.582 13.2891H936.604C938.033 13.2891 939.234 13.0488 940.207 12.5684C941.18 12.0762 941.912 11.4316 942.404 10.6348C942.896 9.82617 943.143 8.94141 943.143 7.98047C943.143 6.92578 942.932 5.9707 942.51 5.11523C942.1 4.25977 941.455 3.58594 940.576 3.09375C939.709 2.58984 938.59 2.33789 937.219 2.33789C936.059 2.33789 935.01 2.57227 934.072 3.04102C933.135 3.50977 932.385 4.17773 931.822 5.04492C931.271 5.90039 930.996 6.92578 930.996 8.12109H929.607C929.607 6.69141 929.947 5.44922 930.627 4.39453C931.307 3.32812 932.221 2.50781 933.369 1.93359C934.529 1.34766 935.812 1.05469 937.219 1.05469C938.707 1.05469 939.996 1.33594 941.086 1.89844C942.188 2.44922 943.037 3.24609 943.635 4.28906C944.244 5.33203 944.549 6.58594 944.549 8.05078C944.549 8.88281 944.367 9.67969 944.004 10.4414C943.652 11.2031 943.137 11.8828 942.457 12.4805C941.789 13.0664 940.975 13.5352 940.014 13.8867C939.053 14.2266 937.963 14.3965 936.744 14.3965H934.582V13.2891ZM934.582 14.6074V13.5352H936.744C938.104 13.5352 939.299 13.6875 940.33 13.9922C941.361 14.2969 942.229 14.7422 942.932 15.3281C943.646 15.9023 944.18 16.5996 944.531 17.4199C944.895 18.2285 945.076 19.1367 945.076 20.1445C945.076 21.293 944.883 22.3125 944.496 23.2031C944.121 24.0938 943.588 24.8496 942.896 25.4707C942.205 26.0918 941.385 26.5605 940.436 26.877C939.498 27.1934 938.473 27.3516 937.359 27.3516C936.363 27.3516 935.379 27.2051 934.406 26.9121C933.434 26.6074 932.549 26.1504 931.752 25.541C930.955 24.9316 930.316 24.1641 929.836 23.2383C929.355 22.3008 929.115 21.2051 929.115 19.9512H930.521C930.521 21.1465 930.814 22.2012 931.4 23.1152C931.998 24.0293 932.812 24.75 933.844 25.2773C934.875 25.8047 936.047 26.0684 937.359 26.0684C938.695 26.0684 939.832 25.8398 940.77 25.3828C941.719 24.9141 942.439 24.2461 942.932 23.3789C943.424 22.5 943.67 21.4453 943.67 20.2148C943.67 18.8906 943.371 17.8184 942.773 16.998C942.176 16.166 941.344 15.5625 940.277 15.1875C939.211 14.8008 937.986 14.6074 936.604 14.6074H934.582ZM949.734 25.9629C949.734 25.6465 949.846 25.377 950.068 25.1543C950.291 24.9199 950.572 24.8027 950.912 24.8027C951.264 24.8027 951.551 24.9141 951.773 25.1367C951.996 25.3594 952.107 25.6348 952.107 25.9629C952.107 26.291 951.996 26.5664 951.773 26.7891C951.551 27.0117 951.264 27.123 950.912 27.123C950.572 27.123 950.291 27.0117 950.068 26.7891C949.846 26.5664 949.734 26.291 949.734 25.9629ZM970.318 19.2832V1.40625H971.742V19.2832C971.742 21.0176 971.414 22.4883 970.758 23.6953C970.102 24.9023 969.205 25.8164 968.068 26.4375C966.943 27.0469 965.666 27.3516 964.236 27.3516C962.713 27.3516 961.389 27.082 960.264 26.543C959.139 26.0039 958.266 25.1895 957.645 24.0996C957.023 22.998 956.713 21.6152 956.713 19.9512H958.137C958.137 21.2754 958.365 22.3945 958.822 23.3086C959.291 24.2109 959.977 24.8965 960.879 25.3652C961.793 25.8223 962.912 26.0508 964.236 26.0508C965.35 26.0508 966.363 25.7988 967.277 25.2949C968.203 24.7793 968.941 24.0234 969.492 23.0273C970.043 22.0195 970.318 20.7715 970.318 19.2832ZM993.451 20.7949C993.451 20.0332 993.322 19.3535 993.064 18.7559C992.807 18.1465 992.379 17.6074 991.781 17.1387C991.195 16.6582 990.422 16.2129 989.461 15.8027C988.5 15.3926 987.316 14.9941 985.91 14.6074C984.621 14.2559 983.455 13.875 982.412 13.4648C981.381 13.043 980.496 12.5625 979.758 12.0234C979.031 11.4844 978.475 10.8457 978.088 10.1074C977.701 9.35742 977.508 8.47266 977.508 7.45312C977.508 6.46875 977.719 5.58398 978.141 4.79883C978.562 4.01367 979.154 3.3457 979.916 2.79492C980.689 2.23242 981.592 1.80469 982.623 1.51172C983.666 1.20703 984.803 1.05469 986.033 1.05469C987.756 1.05469 989.262 1.38281 990.551 2.03906C991.84 2.68359 992.848 3.58008 993.574 4.72852C994.301 5.86523 994.664 7.17188 994.664 8.64844H993.24C993.24 7.44141 992.941 6.36328 992.344 5.41406C991.758 4.46484 990.926 3.7207 989.848 3.18164C988.781 2.63086 987.51 2.35547 986.033 2.35547C984.51 2.35547 983.215 2.58984 982.148 3.05859C981.094 3.52734 980.291 4.14844 979.74 4.92188C979.201 5.68359 978.932 6.51563 978.932 7.41797C978.932 8.0625 979.049 8.66602 979.283 9.22852C979.529 9.79102 979.928 10.3066 980.479 10.7754C981.041 11.2441 981.797 11.6895 982.746 12.1113C983.707 12.5215 984.902 12.9199 986.332 13.3066C987.645 13.6465 988.822 14.0332 989.865 14.4668C990.92 14.8887 991.822 15.3867 992.572 15.9609C993.322 16.5352 993.896 17.2148 994.295 18C994.693 18.7852 994.893 19.7051 994.893 20.7598C994.893 21.8027 994.67 22.7344 994.225 23.5547C993.779 24.3633 993.158 25.0547 992.361 25.6289C991.576 26.1914 990.65 26.6191 989.584 26.9121C988.529 27.2051 987.393 27.3516 986.174 27.3516C985.061 27.3516 983.941 27.2168 982.816 26.9473C981.703 26.6777 980.684 26.2441 979.758 25.6465C978.832 25.0488 978.088 24.2637 977.525 23.291C976.963 22.3184 976.682 21.1348 976.682 19.7402H978.105C978.105 20.9355 978.352 21.9434 978.844 22.7637C979.336 23.5723 979.98 24.2168 980.777 24.6973C981.574 25.1777 982.441 25.5234 983.379 25.7344C984.328 25.9453 985.26 26.0508 986.174 26.0508C987.604 26.0508 988.863 25.834 989.953 25.4004C991.055 24.9551 991.91 24.3398 992.52 23.5547C993.141 22.7578 993.451 21.8379 993.451 20.7949ZM1032.12 20.7949C1032.12 20.0332 1031.99 19.3535 1031.74 18.7559C1031.48 18.1465 1031.05 17.6074 1030.45 17.1387C1029.87 16.6582 1029.09 16.2129 1028.13 15.8027C1027.17 15.3926 1025.99 14.9941 1024.58 14.6074C1023.29 14.2559 1022.13 13.875 1021.08 13.4648C1020.05 13.043 1019.17 12.5625 1018.43 12.0234C1017.7 11.4844 1017.15 10.8457 1016.76 10.1074C1016.37 9.35742 1016.18 8.47266 1016.18 7.45312C1016.18 6.46875 1016.39 5.58398 1016.81 4.79883C1017.23 4.01367 1017.83 3.3457 1018.59 2.79492C1019.36 2.23242 1020.26 1.80469 1021.29 1.51172C1022.34 1.20703 1023.47 1.05469 1024.71 1.05469C1026.43 1.05469 1027.93 1.38281 1029.22 2.03906C1030.51 2.68359 1031.52 3.58008 1032.25 4.72852C1032.97 5.86523 1033.34 7.17188 1033.34 8.64844H1031.91C1031.91 7.44141 1031.61 6.36328 1031.02 5.41406C1030.43 4.46484 1029.6 3.7207 1028.52 3.18164C1027.45 2.63086 1026.18 2.35547 1024.71 2.35547C1023.18 2.35547 1021.89 2.58984 1020.82 3.05859C1019.77 3.52734 1018.96 4.14844 1018.41 4.92188C1017.87 5.68359 1017.6 6.51563 1017.6 7.41797C1017.6 8.0625 1017.72 8.66602 1017.96 9.22852C1018.2 9.79102 1018.6 10.3066 1019.15 10.7754C1019.71 11.2441 1020.47 11.6895 1021.42 12.1113C1022.38 12.5215 1023.57 12.9199 1025 13.3066C1026.32 13.6465 1027.49 14.0332 1028.54 14.4668C1029.59 14.8887 1030.49 15.3867 1031.24 15.9609C1031.99 16.5352 1032.57 17.2148 1032.97 18C1033.37 18.7852 1033.56 19.7051 1033.56 20.7598C1033.56 21.8027 1033.34 22.7344 1032.9 23.5547C1032.45 24.3633 1031.83 25.0547 1031.03 25.6289C1030.25 26.1914 1029.32 26.6191 1028.26 26.9121C1027.2 27.2051 1026.06 27.3516 1024.85 27.3516C1023.73 27.3516 1022.61 27.2168 1021.49 26.9473C1020.38 26.6777 1019.36 26.2441 1018.43 25.6465C1017.5 25.0488 1016.76 24.2637 1016.2 23.291C1015.63 22.3184 1015.35 21.1348 1015.35 19.7402H1016.78C1016.78 20.9355 1017.02 21.9434 1017.52 22.7637C1018.01 23.5723 1018.65 24.2168 1019.45 24.6973C1020.25 25.1777 1021.11 25.5234 1022.05 25.7344C1023 25.9453 1023.93 26.0508 1024.85 26.0508C1026.28 26.0508 1027.54 25.834 1028.62 25.4004C1029.73 24.9551 1030.58 24.3398 1031.19 23.5547C1031.81 22.7578 1032.12 21.8379 1032.12 20.7949ZM1046.2 2.49609L1037.1 27H1035.59L1045.2 1.40625H1046.38L1046.2 2.49609ZM1054.82 27L1045.73 2.49609L1045.55 1.40625H1046.71L1056.35 27H1054.82ZM1052.57 18.2285V19.5469H1039.44V18.2285H1052.57ZM1075.33 20.7949C1075.33 20.0332 1075.2 19.3535 1074.94 18.7559C1074.69 18.1465 1074.26 17.6074 1073.66 17.1387C1073.07 16.6582 1072.3 16.2129 1071.34 15.8027C1070.38 15.3926 1069.2 14.9941 1067.79 14.6074C1066.5 14.2559 1065.33 13.875 1064.29 13.4648C1063.26 13.043 1062.38 12.5625 1061.64 12.0234C1060.91 11.4844 1060.35 10.8457 1059.97 10.1074C1059.58 9.35742 1059.39 8.47266 1059.39 7.45312C1059.39 6.46875 1059.6 5.58398 1060.02 4.79883C1060.44 4.01367 1061.03 3.3457 1061.79 2.79492C1062.57 2.23242 1063.47 1.80469 1064.5 1.51172C1065.54 1.20703 1066.68 1.05469 1067.91 1.05469C1069.63 1.05469 1071.14 1.38281 1072.43 2.03906C1073.72 2.68359 1074.73 3.58008 1075.45 4.72852C1076.18 5.86523 1076.54 7.17188 1076.54 8.64844H1075.12C1075.12 7.44141 1074.82 6.36328 1074.22 5.41406C1073.64 4.46484 1072.8 3.7207 1071.73 3.18164C1070.66 2.63086 1069.39 2.35547 1067.91 2.35547C1066.39 2.35547 1065.09 2.58984 1064.03 3.05859C1062.97 3.52734 1062.17 4.14844 1061.62 4.92188C1061.08 5.68359 1060.81 6.51563 1060.81 7.41797C1060.81 8.0625 1060.93 8.66602 1061.16 9.22852C1061.41 9.79102 1061.81 10.3066 1062.36 10.7754C1062.92 11.2441 1063.68 11.6895 1064.62 12.1113C1065.59 12.5215 1066.78 12.9199 1068.21 13.3066C1069.52 13.6465 1070.7 14.0332 1071.74 14.4668C1072.8 14.8887 1073.7 15.3867 1074.45 15.9609C1075.2 16.5352 1075.78 17.2148 1076.17 18C1076.57 18.7852 1076.77 19.7051 1076.77 20.7598C1076.77 21.8027 1076.55 22.7344 1076.1 23.5547C1075.66 24.3633 1075.04 25.0547 1074.24 25.6289C1073.46 26.1914 1072.53 26.6191 1071.46 26.9121C1070.41 27.2051 1069.27 27.3516 1068.05 27.3516C1066.94 27.3516 1065.82 27.2168 1064.7 26.9473C1063.58 26.6777 1062.56 26.2441 1061.64 25.6465C1060.71 25.0488 1059.97 24.2637 1059.4 23.291C1058.84 22.3184 1058.56 21.1348 1058.56 19.7402H1059.98C1059.98 20.9355 1060.23 21.9434 1060.72 22.7637C1061.21 23.5723 1061.86 24.2168 1062.66 24.6973C1063.45 25.1777 1064.32 25.5234 1065.26 25.7344C1066.21 25.9453 1067.14 26.0508 1068.05 26.0508C1069.48 26.0508 1070.74 25.834 1071.83 25.4004C1072.93 24.9551 1073.79 24.3398 1074.4 23.5547C1075.02 22.7578 1075.33 21.8379 1075.33 20.7949ZM1096.63 20.7949C1096.63 20.0332 1096.51 19.3535 1096.25 18.7559C1095.99 18.1465 1095.56 17.6074 1094.96 17.1387C1094.38 16.6582 1093.61 16.2129 1092.64 15.8027C1091.68 15.3926 1090.5 14.9941 1089.09 14.6074C1087.8 14.2559 1086.64 13.875 1085.6 13.4648C1084.56 13.043 1083.68 12.5625 1082.94 12.0234C1082.21 11.4844 1081.66 10.8457 1081.27 10.1074C1080.88 9.35742 1080.69 8.47266 1080.69 7.45312C1080.69 6.46875 1080.9 5.58398 1081.32 4.79883C1081.75 4.01367 1082.34 3.3457 1083.1 2.79492C1083.87 2.23242 1084.78 1.80469 1085.81 1.51172C1086.85 1.20703 1087.99 1.05469 1089.22 1.05469C1090.94 1.05469 1092.45 1.38281 1093.73 2.03906C1095.02 2.68359 1096.03 3.58008 1096.76 4.72852C1097.48 5.86523 1097.85 7.17188 1097.85 8.64844H1096.42C1096.42 7.44141 1096.12 6.36328 1095.53 5.41406C1094.94 4.46484 1094.11 3.7207 1093.03 3.18164C1091.96 2.63086 1090.69 2.35547 1089.22 2.35547C1087.69 2.35547 1086.4 2.58984 1085.33 3.05859C1084.28 3.52734 1083.47 4.14844 1082.92 4.92188C1082.38 5.68359 1082.12 6.51563 1082.12 7.41797C1082.12 8.0625 1082.23 8.66602 1082.47 9.22852C1082.71 9.79102 1083.11 10.3066 1083.66 10.7754C1084.22 11.2441 1084.98 11.6895 1085.93 12.1113C1086.89 12.5215 1088.09 12.9199 1089.52 13.3066C1090.83 13.6465 1092.01 14.0332 1093.05 14.4668C1094.1 14.8887 1095.01 15.3867 1095.76 15.9609C1096.51 16.5352 1097.08 17.2148 1097.48 18C1097.88 18.7852 1098.08 19.7051 1098.08 20.7598C1098.08 21.8027 1097.85 22.7344 1097.41 23.5547C1096.96 24.3633 1096.34 25.0547 1095.54 25.6289C1094.76 26.1914 1093.83 26.6191 1092.77 26.9121C1091.71 27.2051 1090.58 27.3516 1089.36 27.3516C1088.24 27.3516 1087.12 27.2168 1086 26.9473C1084.89 26.6777 1083.87 26.2441 1082.94 25.6465C1082.02 25.0488 1081.27 24.2637 1080.71 23.291C1080.15 22.3184 1079.87 21.1348 1079.87 19.7402H1081.29C1081.29 20.9355 1081.54 21.9434 1082.03 22.7637C1082.52 23.5723 1083.16 24.2168 1083.96 24.6973C1084.76 25.1777 1085.62 25.5234 1086.56 25.7344C1087.51 25.9453 1088.44 26.0508 1089.36 26.0508C1090.79 26.0508 1092.05 25.834 1093.14 25.4004C1094.24 24.9551 1095.09 24.3398 1095.7 23.5547C1096.32 22.7578 1096.63 21.8379 1096.63 20.7949Z" fill="black"/>
</svg>
